<?xml version="1.0" encoding="UTF-8"?>
<svg version="1.1" xmlns="http://www.w3.org/2000/svg" width="225" height="225">
<path d="M0 0 C74.25 0 148.5 0 225 0 C225 74.25 225 148.5 225 225 C150.75 225 76.5 225 0 225 C0 150.75 0 76.5 0 0 Z " fill="#FEFEFE" transform="translate(0,0)"/>
<path d="M0 0 C3.0625 1.4375 3.0625 1.4375 5 4 C6.22666464 8.13517135 6.80142593 11.49741985 4.72445679 15.39149475 C3.04395216 17.93351562 1.32122887 19.91398385 -0.84130859 22.05249023 C-1.98797501 23.19408852 -1.98797501 23.19408852 -3.1578064 24.35874939 C-4.39066879 25.57142235 -4.39066879 25.57142235 -5.6484375 26.80859375 C-6.92275131 28.07510521 -6.92275131 28.07510521 -8.22280884 29.36720276 C-10.93549395 32.06210166 -13.65476616 34.75022266 -16.375 37.4375 C-19.08723587 40.12204525 -21.7979754 42.80805825 -24.50576782 45.49708557 C-26.18915989 47.16830223 -27.87521824 48.83683869 -29.56430054 50.50230408 C-32.78256443 53.69329811 -35.96163958 56.8505369 -38.83300781 60.36083984 C-40.65712315 62.58241339 -42.38153985 64.34996885 -44.5859375 66.16796875 C-49.64358448 70.49105837 -54.38005144 75.12216882 -59.10058594 79.80541992 C-60.11599745 80.80928527 -61.13586687 81.80866157 -62.16015625 82.8034668 C-72.86561628 93.11135796 -72.86561628 93.11135796 -78.796875 106.46875 C-78.78140625 107.4690625 -78.7659375 108.469375 -78.75 109.5 C-78.76546875 110.5003125 -78.7809375 111.500625 -78.796875 112.53125 C-76.7731803 121.34027398 -70.56780495 128.00681344 -64.23046875 134.125 C-63.50886063 134.83857666 -62.7872525 135.55215332 -62.04377747 136.28735352 C-59.76774597 138.53469508 -57.47838246 140.76780857 -55.1875 143 C-52.88154592 145.26341589 -50.57847129 147.52969253 -48.27766418 149.79833984 C-46.85227792 151.20204849 -45.42341894 152.6022413 -43.99076843 153.99853516 C-43.3495253 154.62679199 -42.70828217 155.25504883 -42.04760742 155.90234375 C-41.198722 156.72980103 -41.198722 156.72980103 -40.33268738 157.57397461 C-37.70472315 160.38599472 -37.59516416 163.11201234 -37.6640625 166.89453125 C-38.27925494 170.75021408 -40.10400214 172.52633516 -43 175 C-47.3159745 176.68846701 -50.24272973 176.31102172 -54.5 174.5625 C-58.89356453 171.67702398 -62.40483768 167.79530538 -66 164 C-66.73863281 163.29875 -67.47726563 162.5975 -68.23828125 161.875 C-70 160 -70 160 -70 158 C-70.59167969 157.73445312 -71.18335937 157.46890625 -71.79296875 157.1953125 C-77.63781791 154.02978357 -82.03654749 147.94977005 -86.30859375 142.9609375 C-87.38183941 141.71666655 -88.47618611 140.49005009 -89.59765625 139.2890625 C-98.20007633 129.91660481 -101.48163641 119.12966127 -101.2421875 106.55859375 C-99.91912533 87.11811568 -85.88358386 75.20872575 -72.94921875 62.20703125 C-71.16699749 60.40685362 -69.3849208 58.60653285 -67.60298157 56.80607605 C-63.88080424 53.05105931 -60.15006026 49.30473278 -56.41430664 45.56323242 C-52.10672457 41.24835391 -47.82621858 36.90781142 -43.55694264 32.55505925 C-39.42742484 28.34768399 -35.27045031 24.16818968 -31.10294533 19.99841881 C-29.34169106 18.22876156 -27.58866617 16.45087364 -25.84421349 14.66465187 C-23.40575992 12.17245628 -20.93763442 9.71386156 -18.4597168 7.26098633 C-17.74925705 6.520858 -17.0387973 5.78072968 -16.30680847 5.01817322 C-11.17503048 0.03264893 -7.11753197 -1.28636118 0 0 Z " fill="#070706" transform="translate(139,3)"/>
<path d="M0 0 C0.81141449 -0.0049649 1.62282898 -0.00992981 2.45883179 -0.01504517 C5.15648228 -0.02970856 7.85407393 -0.03647669 10.55175781 -0.04199219 C12.42165123 -0.04774145 14.29154462 -0.05349921 16.16143799 -0.05926514 C20.08907344 -0.06978786 24.01668836 -0.07562178 27.94433594 -0.07910156 C32.97611547 -0.08458037 38.00762358 -0.10858989 43.03931808 -0.13707352 C46.9049356 -0.15570534 50.77048792 -0.16090585 54.63614655 -0.16243744 C56.49089284 -0.1654647 58.34563796 -0.1734957 60.20034027 -0.18662262 C62.79783165 -0.20368994 65.3946627 -0.20180096 67.9921875 -0.1953125 C69.14105942 -0.20913467 69.14105942 -0.20913467 70.31314087 -0.22323608 C74.80842949 -0.18808536 77.70003854 0.3537453 81.25488281 3.16113281 C83.93956319 7.18815339 83.93676018 10.42956911 83.25488281 15.16113281 C81.11626752 18.75095135 79.13344744 20.6932421 75.25488281 22.16113281 C72.59182013 22.36657927 70.03209122 22.46514649 67.36865234 22.4675293 C66.57791321 22.47585281 65.78717407 22.48417633 64.97247314 22.49275208 C62.36083031 22.51682937 59.74943733 22.52562119 57.13769531 22.53222656 C55.31932501 22.54119436 53.50095546 22.55031623 51.68258667 22.55958557 C47.87121793 22.57607175 44.059937 22.58377505 40.24853516 22.58666992 C35.37028279 22.59205453 30.49285817 22.62973912 25.61483955 22.67541409 C21.85896812 22.70519001 18.10329594 22.71239359 14.34731674 22.71339607 C12.54919517 22.71759702 10.75107294 22.73002637 8.95306778 22.75091362 C6.4347306 22.77784111 3.91831109 22.77299972 1.39990234 22.76049805 C0.66099762 22.77533234 -0.0779071 22.79016663 -0.83920288 22.80545044 C-6.5608254 22.7247722 -8.87864923 21.07924086 -12.74511719 17.16113281 C-14.48009835 13.69117049 -14.353059 9.94606086 -13.74511719 6.16113281 C-11.30761719 3.16113281 -11.30761719 3.16113281 -8.74511719 1.16113281 C-6.74788729 -0.83609708 -2.73582968 0.0039512 0 0 Z " fill="#B5B3B2" transform="translate(109.7451171875,101.8388671875)"/>
<path d="M0 0 C2.70567626 1.82339052 4.53728718 3.07457436 6 6 C6.90729713 12.57790419 6.90729713 12.57790419 4.75390625 15.953125 C2.90876684 18.04968063 0.96931896 20.01978075 -1 22 C-2.4421752 23.64173819 -3.87949108 25.28775485 -5.3125 26.9375 C-15.84450468 38.51914704 -27.30048147 48.07639865 -43.4375 49.25 C-54.8834224 49.6192233 -63.37164195 46.99097834 -73 41 C-71 40 -71 40 -67.125 39.75 C-64.02030498 39.3605019 -63.0710608 39.05507212 -60.5 37.0625 C-58.36462149 32.70276887 -58.66665343 28.76870793 -59 24 C-58.2575 24.33 -57.515 24.66 -56.75 25 C-50.22199615 26.74080103 -43.75713788 26.78118907 -37.25 24.9375 C-28.89676371 19.95768606 -22.28571525 12.36255511 -15.56054688 5.43359375 C-14.88443359 4.74652344 -14.20832031 4.05945313 -13.51171875 3.3515625 C-12.90803467 2.73104004 -12.30435059 2.11051758 -11.68237305 1.47119141 C-7.95807683 -1.78560862 -4.5442534 -1.01853956 0 0 Z " fill="#EBA341" transform="translate(159,138)"/>
<path d="M0 0 C13.36374511 4.02161301 21.35131045 12.03561108 31 21.8125 C31.9618345 22.77579527 32.92407199 23.73868833 33.88671875 24.70117188 C41.87396961 32.7396961 41.87396961 32.7396961 42.375 37.75 C42.30593059 41.19719123 41.86020508 42.24802324 40.0625 45.4375 C36.63354892 48.30662233 34.69087573 48.87370698 30.37890625 49.3828125 C21.73839135 47.99238482 15.09022405 38.11357578 9.43164062 32.17773438 C3.89143561 26.49515069 -0.0340557 22.5758514 -8.1328125 21.63671875 C-9.12023437 21.65347656 -10.10765625 21.67023437 -11.125 21.6875 C-12.11757812 21.69136719 -13.11015625 21.69523437 -14.1328125 21.69921875 C-17.08668894 22.00909407 -19.3129535 22.76474602 -22 24 C-19.91705452 20.23321888 -17.61077657 17.37439031 -14.55078125 14.35546875 C-13.27944336 13.09379883 -13.27944336 13.09379883 -11.98242188 11.80664062 C-11.10134766 10.94232422 -10.22027344 10.07800781 -9.3125 9.1875 C-8.41982422 8.30384766 -7.52714844 7.42019531 -6.60742188 6.50976562 C-4.40940071 4.33525271 -2.2068407 2.16555573 0 0 Z " fill="#EAA341" transform="translate(123,39)"/>
</svg>
