<?xml version="1.0" encoding="UTF-8"?>
<svg version="1.1" xmlns="http://www.w3.org/2000/svg" width="225" height="225">
<path d="M0 0 C3.44585933 1.72292966 5.40248927 3.03878709 7.4375 6.3125 C8.22125727 10.05711806 8.06896653 12.29005734 7 16 C2.98292927 21.98673121 -2.85818585 26.9353623 -7.99926758 31.96362305 C-10.86034479 34.70507937 -10.86034479 34.70507937 -13 38 C-12.11626709 38.10594482 -11.23253418 38.21188965 -10.32202148 38.32104492 C-0.34686178 40.35976904 7.24359681 48.6511884 14.11938477 55.70776367 C15.58163414 57.2071197 17.05986418 58.68925677 18.54101562 60.16992188 C27.65851 69.38191003 27.65851 69.38191003 28.375 74.875 C27.88822519 78.93145679 26.6272346 80.88880113 24 84 C20.881212 86.10179191 18.87903231 86.9617812 15.125 87.125 C9.0664178 84.94391041 5.04083579 80.05885054 0.5859375 75.5625 C-0.32961914 74.63957153 -0.32961914 74.63957153 -1.26367188 73.69799805 C-2.48229804 72.46354765 -3.69480919 71.2230233 -4.90039062 69.97583008 C-11.03125549 63.71623087 -16.11092703 59.88967454 -25.1875 59.6875 C-26.27417969 59.65011719 -27.36085938 59.61273438 -28.48046875 59.57421875 C-36.65116814 60.56268294 -42.03769402 65.43623054 -47.640625 71.109375 C-48.33009216 71.79501526 -49.01955933 72.48065552 -49.72991943 73.18707275 C-51.17675204 74.63119817 -52.6186051 76.08032813 -54.05566406 77.53417969 C-56.24380057 79.74373987 -58.4524668 81.93113666 -60.6640625 84.1171875 C-62.07420087 85.52996936 -63.48309779 86.94399167 -64.890625 88.359375 C-65.54484436 89.00549744 -66.19906372 89.65161987 -66.87310791 90.31732178 C-72.63119228 96.19354586 -76.58387252 102.02887597 -76.5 110.5 C-76.5103125 111.5415625 -76.520625 112.583125 -76.53125 113.65625 C-75.22711609 121.86462226 -70.36141624 127.22950338 -64.6015625 132.89453125 C-63.53269302 133.96558357 -63.53269302 133.96558357 -62.44223022 135.05827332 C-60.94254623 136.55630615 -59.43794694 138.04943286 -57.92871094 139.5378418 C-55.62653503 141.81098433 -53.3436829 144.10229559 -51.0625 146.39648438 C-49.59746513 147.85528323 -48.13135515 149.31300334 -46.6640625 150.76953125 C-45.98574371 151.45078568 -45.30742493 152.1320401 -44.60855103 152.8339386 C-38.85775384 158.47204961 -33.70992469 161.49414312 -25.58203125 162.0546875 C-12.43911696 161.77632018 -4.02010746 150.14950466 4.43945312 141.43359375 C5.11556641 140.74652344 5.79167969 140.05945313 6.48828125 139.3515625 C7.09196533 138.73104004 7.69564941 138.11051758 8.31762695 137.47119141 C10.84974227 135.25692252 13.00103635 134.99990223 16.3125 134.6875 C20.72563017 135.06149408 22.66258074 136.12826715 26 139 C27.84139786 141.96224873 27.99660254 143.81993459 28.0625 147.3125 C27.02707474 150.90603472 26.38234588 152.00461095 23.98046875 154.66015625 C23.34874756 155.35874756 22.71702637 156.05733887 22.06616211 156.77709961 C18.50636046 160.60694647 14.91261572 164.39315958 11.25 168.125 C10.14785156 169.28322266 10.14785156 169.28322266 9.0234375 170.46484375 C-0.39693538 180.03190063 -11.94603771 185.9129331 -25.5 186.375 C-47.01351665 185.69982544 -59.75298717 170.50385484 -74.04174805 156.41821289 C-75.47052873 155.01609281 -76.90642126 153.62118272 -78.34936523 152.23364258 C-89.87629161 141.14154629 -99.90968305 130.2583791 -100.29272461 113.45092773 C-100.41551424 97.84451697 -96.05654495 87.23850426 -85.17253113 75.80503845 C-83.78433213 74.40532544 -82.3881452 73.01350071 -80.98510742 71.62866211 C-80.21676575 70.85827606 -79.44842407 70.08789001 -78.65679932 69.29415894 C-76.14686783 66.78124931 -73.62644128 64.27917261 -71.10546875 61.77734375 C-69.34848094 60.02341726 -67.59208654 58.26889615 -65.83625793 56.5138092 C-62.17183793 52.85397268 -58.50258625 49.19907898 -54.8293457 45.5480957 C-50.11346089 40.86063831 -45.40645434 36.16443271 -40.7025404 31.4649725 C-37.08378289 27.85036149 -33.46220311 24.23859038 -29.83956337 20.62787056 C-28.10189475 18.89590814 -26.36469962 17.16347055 -24.62798119 15.43055534 C-22.21057268 13.01999 -19.78981097 10.61284775 -17.36791992 8.20678711 C-16.64739944 7.48738449 -15.92687897 6.76798187 -15.18452454 6.02677917 C-14.52717316 5.37513794 -13.86982178 4.7234967 -13.19255066 4.05210876 C-12.62091281 3.48344558 -12.04927496 2.91478239 -11.46031475 2.32888699 C-8.1241064 -0.7070639 -4.27980378 -0.57276184 0 0 Z " fill="#060604" transform="translate(138,2)"/>
<path d="M0 0 C0.75987213 -0.0049649 1.51974426 -0.00992981 2.30264282 -0.01504517 C4.81204134 -0.02962853 7.32137664 -0.0364625 9.83081055 -0.04199219 C11.57952373 -0.04774691 13.32823691 -0.05350461 15.07695007 -0.05926514 C18.74287204 -0.06976433 22.40877215 -0.07561403 26.07470703 -0.07910156 C30.76206387 -0.08458314 35.44912978 -0.10860849 40.13639545 -0.13707352 C43.74902682 -0.15573767 47.36158864 -0.16090751 50.97426414 -0.16243744 C52.70175962 -0.16545611 54.42925409 -0.17345803 56.15670204 -0.18662262 C58.57864875 -0.20376201 60.99989152 -0.20178387 63.421875 -0.1953125 C64.12913223 -0.20452728 64.83638947 -0.21374207 65.56507874 -0.22323608 C70.61947588 -0.1811326 73.99077525 0.873029 78.4050293 3.16113281 C80.88398707 6.03992249 81.36216091 7.82430977 81.8425293 11.59863281 C81.32397201 15.82117069 80.07152098 17.88515732 77.4050293 21.16113281 C73.66753583 23.65279513 70.7596327 23.44976979 66.43286133 23.43579102 C65.62115479 23.44090195 64.80944824 23.44601288 63.97314453 23.45127869 C61.28630221 23.46519358 58.5997159 23.46421631 55.9128418 23.46191406 C54.04580591 23.46580034 52.17877091 23.47013487 50.31173706 23.47489929 C46.396028 23.48236587 42.48040908 23.48206735 38.56469727 23.47680664 C33.54864447 23.47101561 28.53296136 23.48793202 23.51696968 23.51115131 C19.6599207 23.52589041 15.80296067 23.52676004 11.94588852 23.52364159 C10.09673201 23.52415485 8.24757053 23.5293935 6.39844131 23.53945351 C3.8107129 23.55180213 1.2237034 23.54503554 -1.36401367 23.53344727 C-2.12678619 23.541091 -2.88955872 23.54873474 -3.67544556 23.55661011 C-8.16956599 23.51216914 -11.00821402 22.90660003 -14.5949707 20.16113281 C-17.34696464 17.04220635 -17.82303151 14.69915068 -17.5949707 10.66113281 C-16.90957925 6.14206825 -15.31626874 3.93047089 -11.5949707 1.16113281 C-7.84806034 -0.19958744 -3.93516472 0.00616679 0 0 Z " fill="#B3B2B0" transform="translate(112.594970703125,100.8388671875)"/>
<path d="M0 0 C3.39549127 1.72977857 5.42059334 3.06791103 7.4375 6.3125 C8.22125727 10.05711806 8.06896653 12.29005734 7 16 C5.67260742 17.78930664 5.67260742 17.78930664 3.98046875 19.66015625 C3.34874756 20.35874756 2.71702637 21.05733887 2.06616211 21.77709961 C-1.49363954 25.60694647 -5.08738428 29.39315958 -8.75 33.125 C-9.85214844 34.28322266 -9.85214844 34.28322266 -10.9765625 35.46484375 C-20.39693538 45.03190063 -31.94603771 50.9129331 -45.5 51.375 C-54.35811148 51.09699935 -65.08447357 48.64740681 -71.71875 42.375 C-72.1415625 41.92125 -72.564375 41.4675 -73 41 C-71.783125 41.061875 -70.56625 41.12375 -69.3125 41.1875 C-65.40258304 41.1875 -63.12730688 40.48344958 -60 38 C-57.98303778 34.97455666 -57.74188904 34.38932618 -57.8125 31 C-57.81894531 30.319375 -57.82539062 29.63875 -57.83203125 28.9375 C-57.94302254 26.78241791 -57.94302254 26.78241791 -59 24 C-58.32195312 24.22816406 -57.64390625 24.45632812 -56.9453125 24.69140625 C-49.96978255 26.84589819 -43.15649967 28.45917478 -36.28198242 25.18066406 C-29.75754611 21.46932077 -24.85208265 16.11659216 -19.6875 10.75 C-17.9251545 8.92784928 -16.15843385 7.10991679 -14.38671875 5.296875 C-13.61545654 4.49604492 -12.84419434 3.69521484 -12.04956055 2.87011719 C-8.37911861 -0.4789698 -4.78678496 -0.40565974 0 0 Z " fill="#EAA341" transform="translate(158,137)"/>
<path d="M0 0 C2.31975244 0.4365062 3.86542296 1.2462069 5.89160156 2.46191406 C6.7263501 2.90398193 7.56109863 3.3460498 8.42114258 3.80151367 C15.56205154 7.92363589 21.30146114 13.31003015 27.01098633 19.16967773 C28.4732357 20.66903376 29.95146574 22.15117084 31.43261719 23.63183594 C40.55011157 32.84382409 40.55011157 32.84382409 41.26660156 38.33691406 C40.77982675 42.39337085 39.51883617 44.35071519 36.89160156 47.46191406 C33.77281356 49.56370598 31.77063388 50.42369527 28.01660156 50.58691406 C21.95801936 48.40582447 17.93243735 43.5207646 13.47753906 39.02441406 C12.56198242 38.1014856 12.56198242 38.1014856 11.62792969 37.15991211 C10.40930352 35.92546171 9.19679237 34.68493736 7.99121094 33.43774414 C1.8274183 27.14452575 -3.22924766 23.33929756 -12.35839844 23.21191406 C-17.7730158 23.23611347 -21.40161343 23.83487127 -26.10839844 26.46191406 C-23.76336071 20.90240327 -19.1485457 16.90150047 -14.99755859 12.65087891 C-13.98789225 11.608002 -12.98909118 10.55449547 -12.00146484 9.49072266 C-3.99941542 0.87620356 -3.99941542 0.87620356 0 0 Z " fill="#EAA340" transform="translate(125.1083984375,38.5380859375)"/>
<path d="M0 0 C0.33 0.66 0.66 1.32 1 2 C-0.47169811 5.73584906 -0.47169811 5.73584906 -3 7 C-3.103125 7.61875 -3.20625 8.2375 -3.3125 8.875 C-4.2966083 11.9167893 -6.32692734 12.39615641 -9 14 C-9.68790593 16.04191239 -9.68790593 16.04191239 -10 18 C-9.39671875 18.04898438 -8.7934375 18.09796875 -8.171875 18.1484375 C-7.37265625 18.22320312 -6.5734375 18.29796875 -5.75 18.375 C-4.96109375 18.44460937 -4.1721875 18.51421875 -3.359375 18.5859375 C-0.914123 19.01507113 0.84836903 19.78600638 3 21 C2.34 21.33 1.68 21.66 1 22 C0.01 21.67 -0.98 21.34 -2 21 C-9.30754575 20.48649679 -15.52117729 20.38391291 -22 24 C-20.4608199 20.33247995 -18.24514548 18.01419427 -15.4296875 15.234375 C-14.08583984 13.90019531 -14.08583984 13.90019531 -12.71484375 12.5390625 C-11.77769531 11.61867188 -10.84054688 10.69828125 -9.875 9.75 C-8.92011363 8.80515144 -7.96568141 7.85984367 -7.01171875 6.9140625 C-4.67890913 4.60481662 -2.34155914 2.30036797 0 0 Z " fill="#D29A4A" transform="translate(121,41)"/>
<path d="M0 0 C0.99 0.66 1.98 1.32 3 2 C2.01 3.485 2.01 3.485 1 5 C0.34 5 -0.32 5 -1 5 C1.77079887 8.80984844 5.62868145 9.06840752 10 10 C10 10.33 10 10.66 10 11 C2.2482678 10.62491618 -4.94974064 8.76727181 -10.7890625 3.3359375 C-11.18867187 2.89507812 -11.58828125 2.45421875 -12 2 C-10.7625 2.04125 -9.525 2.0825 -8.25 2.125 C-4.98362038 2.13658291 -2.7853053 1.8568702 0 0 Z " fill="#D79F50" transform="translate(97,176)"/>
<path d="M0 0 C-3.44450737 2.29633824 -5.93812283 2.54016485 -10 3 C-10 3.99 -10 4.98 -10 6 C-10.9590625 6.37125 -10.9590625 6.37125 -11.9375 6.75 C-14.18741541 7.81562433 -14.18741541 7.81562433 -14.75 10.125 C-14.8325 10.74375 -14.915 11.3625 -15 12 C-15.99 12 -16.98 12 -18 12 C-20.18777466 13.9375006 -20.18777466 13.9375006 -22 16 C-22.66 15.67 -23.32 15.34 -24 15 C-21.73737364 12.67934614 -19.46356994 10.36996401 -17.1875 8.0625 C-16.54490234 7.40314453 -15.90230469 6.74378906 -15.24023438 6.06445312 C-14.61826172 5.43603516 -13.99628906 4.80761719 -13.35546875 4.16015625 C-12.49924927 3.28822632 -12.49924927 3.28822632 -11.62573242 2.39868164 C-8.13394609 -0.60543968 -4.37230842 -0.08249639 0 0 Z " fill="#DDA557" transform="translate(158,137)"/>
<path d="M0 0 C3.21043882 1.38188453 5.04936365 2.92421903 7.25 5.625 C7.77078125 6.25664063 8.2915625 6.88828125 8.828125 7.5390625 C9.40820312 8.26222656 9.40820312 8.26222656 10 9 C7.75 9.25 7.75 9.25 5 9 C2.6875 7.125 2.6875 7.125 1 5 C1 4.34 1 3.68 1 3 C0.34 2.67 -0.32 2.34 -1 2 C-0.67 1.34 -0.34 0.68 0 0 Z " fill="#E1A552" transform="translate(139,47)"/>
<path d="M0 0 C3 1 3 1 4.1875 3.0625 C4.455625 3.701875 4.72375 4.34125 5 5 C5.66 5 6.32 5 7 5 C7 5.66 7 6.32 7 7 C6.01 7 5.02 7 4 7 C4 8.65 4 10.3 4 12 C3.34 12 2.68 12 2 12 C1.67 12.99 1.34 13.98 1 15 C0.34 14.67 -0.32 14.34 -1 14 C-0.34 13.01 0.32 12.02 1 11 C1.27785432 9.04620501 1.27785432 9.04620501 1.1875 7 C1.18105469 6.319375 1.17460938 5.63875 1.16796875 4.9375 C1.05697746 2.78241791 1.05697746 2.78241791 0 0 Z " fill="#CE984E" transform="translate(99,161)"/>
<path d="M0 0 C4.13621084 3.3810038 7.81316569 6.66590534 11 11 C10.67 11.66 10.34 12.32 10 13 C8 12 8 12 7.0625 10 C6.1108154 7.65391779 6.1108154 7.65391779 3 7 C3 6.34 3 5.68 3 5 C2.01 4.67 1.02 4.34 0 4 C0 2.68 0 1.36 0 0 Z " fill="#DDA557" transform="translate(154,61)"/>
<path d="M0 0 C-0.33 0.33 -0.66 0.66 -1 1 C-0.01 1.66 0.98 2.32 2 3 C-2.06368679 3.77403558 -5.86425173 4.0984702 -10 4 C-10.33 3.34 -10.66 2.68 -11 2 C-9.54494642 1.47007308 -8.08581873 0.9513211 -6.625 0.4375 C-5.81289062 0.14746094 -5.00078125 -0.14257812 -4.1640625 -0.44140625 C-2 -1 -2 -1 0 0 Z " fill="#E4A74B" transform="translate(126,162)"/>
<path d="M0 0 C0.33 0.66 0.66 1.32 1 2 C-0.28062485 3.7074998 -1.61767557 5.37373596 -3 7 C-3.66 7 -4.32 7 -5 7 C-5.66 5.68 -6.32 4.36 -7 3 C-4.69 2.01 -2.38 1.02 0 0 Z " fill="#DEA64B" transform="translate(164,80)"/>
<path d="M0 0 C1.65 0.33 3.3 0.66 5 1 C5 1.66 5 2.32 5 3 C7.475 3.99 7.475 3.99 10 5 C5.82412255 6.39195915 3.86525224 4.82323219 0 3 C0 2.01 0 1.02 0 0 Z " fill="#DA9B3E" transform="translate(123,39)"/>
<path d="M0 0 C1.1446875 0.3403125 1.1446875 0.3403125 2.3125 0.6875 C-0.41228774 4.05341427 -3.75606792 5.12976276 -7.6875 6.6875 C-4.45731707 -0.51829268 -4.45731707 -0.51829268 0 0 Z " fill="#BA853F" transform="translate(106.6875,58.3125)"/>
<path d="M0 0 C0.33 0 0.66 0 1 0 C1.36923077 7.50769231 1.36923077 7.50769231 -0.5 10 C-0.995 10.33 -1.49 10.66 -2 11 C-1.125 3.375 -1.125 3.375 0 0 Z " fill="#1D0C01" transform="translate(100,164)"/>
</svg>
